<?xml version="1.0" encoding="iso-8859-1"?>
<!-- Generator: Adobe Illustrator 19.0.0, SVG Export Plug-In . SVG Version: 6.00 Build 0)  -->
<svg version="1.1" id="Layer_1" xmlns="http://www.w3.org/2000/svg" xmlns:xlink="http://www.w3.org/1999/xlink" x="0px" y="0px"
	 viewBox="0 0 496.158 496.158" style="enable-background:new 0 0 496.158 496.158;" xml:space="preserve">
<path style="fill:#56B48C;" d="M248.082,0.003C111.07,0.003,0,111.061,0,248.085c0,137,111.07,248.07,248.082,248.07
	c137.006,0,248.076-111.07,248.076-248.07C496.158,111.061,385.088,0.003,248.082,0.003z"/>
<g>
	<path style="fill:#FFFFFF;" d="M189.631,145.419c-3.127-4.003-7.276-6.006-12.451-6.006c-4.592,0-7.716,0.879-9.375,2.637
		c-1.662,1.758-5.226,6.445-10.693,14.063c-5.471,7.617-11.744,14.502-18.823,20.654c-7.081,6.152-16.53,12.012-28.345,17.578
		c-7.91,3.712-13.429,6.738-16.553,9.082c-3.127,2.344-4.688,6.006-4.688,10.986c0,4.298,1.586,8.082,4.761,11.353
		c3.173,3.273,6.812,4.907,10.913,4.907c8.592,0,25.291-9.521,50.098-28.564V335.41c0,7.814,1.806,13.722,5.42,17.725
		c3.611,4.003,8.397,6.006,14.355,6.006c13.378,0,20.068-9.814,20.068-29.443V161.972
		C194.318,154.941,192.755,149.425,189.631,145.419z"/>
	<path style="fill:#FFFFFF;" d="M401.008,181.747c-4.299-9.276-9.547-17.065-15.747-23.364
		c-6.202-6.299-13.403-11.083-21.606-14.355c-8.203-3.271-17.336-4.907-27.393-4.907c-15.234,0-28.345,3.688-39.331,11.06
		c-10.986,7.375-19.361,18.091-25.122,32.153c-3.321,8.496-5.764,18.654-7.324,30.469c-1.563,11.817-2.344,25.099-2.344,39.844
		c0,11.426,0.707,22.046,2.124,31.86c1.415,9.814,3.637,18.775,6.665,26.88c5.955,14.845,14.818,26.466,26.587,34.863
		c11.767,8.4,25.071,12.598,39.917,12.598c12.891,0,24.609-3.126,35.156-9.375s19.139-15.136,25.781-26.66
		c5.273-9.375,8.885-19.823,10.84-31.348c1.952-11.522,2.93-25.292,2.93-41.309C412.141,220.664,408.428,197.861,401.008,181.747z
		 M368.928,292.929c-2.051,11.623-5.617,20.558-10.693,26.807c-5.079,6.251-12.11,9.375-21.094,9.375
		c-8.693,0-15.578-3.003-20.654-9.009c-5.079-6.006-8.693-14.868-10.84-26.587c-2.149-11.719-3.223-26.756-3.223-45.117
		c0-27.049,2.514-47.069,7.544-60.059c5.028-12.987,13.989-19.482,26.88-19.482c8.983,0,16.015,2.907,21.094,8.716
		c5.076,5.812,8.69,14.406,10.84,25.781c2.146,11.378,3.223,26.001,3.223,43.872C372.004,266.075,370.978,281.309,368.928,292.929z"
		/>
</g>
<g>
</g>
<g>
</g>
<g>
</g>
<g>
</g>
<g>
</g>
<g>
</g>
<g>
</g>
<g>
</g>
<g>
</g>
<g>
</g>
<g>
</g>
<g>
</g>
<g>
</g>
<g>
</g>
<g>
</g>
</svg>
