<?xml version="1.0" encoding="iso-8859-1"?>
<!-- Generator: Adobe Illustrator 19.0.0, SVG Export Plug-In . SVG Version: 6.00 Build 0)  -->
<svg version="1.1" id="Layer_1" xmlns="http://www.w3.org/2000/svg" xmlns:xlink="http://www.w3.org/1999/xlink" x="0px" y="0px"
	 viewBox="0 0 496.158 496.158" style="enable-background:new 0 0 496.158 496.158;" xml:space="preserve">
<path style="fill:#56B48C;" d="M248.082,0.003C111.07,0.003,0,111.061,0,248.085c0,137,111.07,248.07,248.082,248.07
	c137.006,0,248.076-111.07,248.076-248.07C496.158,111.061,385.088,0.003,248.082,0.003z"/>
<path style="fill:#FFFFFF;" d="M321.248,258.652c-3.223-8.69-7.789-16.234-13.696-22.632c-5.91-6.395-12.794-11.327-20.654-14.795
	c-7.862-3.465-16.432-5.2-25.708-5.2c-9.668,0-18.409,1.904-26.221,5.713c-7.814,3.809-15.04,9.668-21.68,17.578
	c1.268-26.562,5.468-45.019,12.598-55.371c3.516-5.077,7.837-9.105,12.964-12.085c5.127-2.978,10.277-4.468,15.454-4.468
	c6.445,0,12.108,1.783,16.992,5.347c4.882,3.566,8.446,8.276,10.693,14.136c1.659,4.591,4.248,8.18,7.764,10.767
	c3.516,2.589,7.324,3.882,11.426,3.882c4.688,0,8.544-1.634,11.572-4.907c3.026-3.271,4.541-6.908,4.541-10.913
	c0-6.64-2.417-13.573-7.251-20.801c-4.834-7.226-12.012-13.28-21.533-18.164c-9.521-4.882-20.533-7.324-33.032-7.324
	c-12.989,0-24.562,2.442-34.717,7.324c-10.158,4.884-18.8,12.11-25.928,21.68c-7.13,9.572-12.598,21.632-16.406,36.182
	c-3.809,14.552-5.713,31.055-5.713,49.512c0,22.657,3.149,41.821,9.448,57.495s15.404,27.516,27.319,35.522
	c11.913,8.009,26.074,12.012,42.48,12.012c14.257,0,27.026-3.149,38.306-9.448s20.068-15.063,26.367-26.294
	c6.299-11.229,9.448-23.73,9.448-37.5C326.082,276.427,324.471,267.345,321.248,258.652z M277.303,318.198
	c-6.445,8.057-14.601,12.085-24.463,12.085c-10.353,0-18.947-4.395-25.781-13.184c-6.837-8.789-10.254-19.775-10.254-32.959
	c0-8.203,1.685-15.355,5.054-21.46c3.369-6.102,7.812-10.767,13.33-13.989c5.516-3.223,11.302-4.834,17.358-4.834
	c6.347,0,12.158,1.685,17.432,5.054c5.274,3.369,9.423,8.253,12.451,14.648c3.026,6.397,4.541,14.04,4.541,22.925
	C286.971,299.571,283.748,310.141,277.303,318.198z"/>
<g>
</g>
<g>
</g>
<g>
</g>
<g>
</g>
<g>
</g>
<g>
</g>
<g>
</g>
<g>
</g>
<g>
</g>
<g>
</g>
<g>
</g>
<g>
</g>
<g>
</g>
<g>
</g>
<g>
</g>
</svg>
