<?xml version="1.0" encoding="iso-8859-1"?>
<!-- Generator: Adobe Illustrator 19.0.0, SVG Export Plug-In . SVG Version: 6.00 Build 0)  -->
<svg version="1.1" id="Layer_1" xmlns="http://www.w3.org/2000/svg" xmlns:xlink="http://www.w3.org/1999/xlink" x="0px" y="0px"
	 viewBox="0 0 496.158 496.158" style="enable-background:new 0 0 496.158 496.158;" xml:space="preserve">
<path style="fill:#56B48C;" d="M248.082,0.003C111.07,0.003,0,111.061,0,248.085c0,137,111.07,248.07,248.082,248.07
	c137.006,0,248.076-111.07,248.076-248.07C496.158,111.061,385.088,0.003,248.082,0.003z"/>
<path style="fill:#FFFFFF;" d="M320.002,270.444c-2.783-6.885-6.91-12.938-12.378-18.164c-5.47-5.223-12.354-9.448-20.654-12.671
	c9.765-4.784,17.113-10.936,22.046-18.457c4.93-7.519,7.397-16.063,7.397-25.635c0-7.519-1.417-14.623-4.248-21.313
	c-2.833-6.688-7.178-12.694-13.037-18.018c-5.859-5.321-13.184-9.496-21.973-12.524c-8.789-3.026-18.995-4.541-30.615-4.541
	c-13.77,0-25.807,2.589-36.108,7.764c-10.305,5.177-18.116,12.085-23.438,20.728c-5.324,8.643-7.983,17.848-7.983,27.612
	c0,20.215,10.009,35.01,30.029,44.385c-24.806,9.767-37.207,27.784-37.207,54.053c0,12.305,2.93,23.415,8.789,33.325
	c5.859,9.913,14.55,17.702,26.074,23.364c11.522,5.663,25.39,8.496,41.602,8.496c15.624,0,29.198-2.833,40.723-8.496
	c11.522-5.663,20.263-13.5,26.221-23.511c5.956-10.009,8.936-21.167,8.936-33.472C324.177,284.971,322.785,277.329,320.002,270.444z
	 M225.226,175.668c5.614-5.713,13.012-8.569,22.192-8.569c6.054,0,11.426,1.318,16.113,3.955s8.324,6.251,10.913,10.84
	c2.586,4.591,3.882,9.767,3.882,15.527c0,4.298-0.732,8.229-2.197,11.792c-1.465,3.566-3.541,6.642-6.226,9.229
	c-2.688,2.589-5.91,4.614-9.668,6.079c-3.761,1.465-7.936,2.197-12.524,2.197c-9.082,0-16.505-2.758-22.266-8.276
	c-5.763-5.516-8.643-12.426-8.643-20.728C216.804,188.731,219.609,181.381,225.226,175.668z M279.352,312.412
	c-3.126,5.859-7.423,10.4-12.891,13.623c-5.47,3.223-11.622,4.834-18.457,4.834c-6.738,0-12.843-1.586-18.311-4.761
	c-5.47-3.172-9.792-7.665-12.964-13.477c-3.175-5.809-4.761-12.524-4.761-20.142c0-11.913,3.369-21.19,10.107-27.832
	c6.738-6.64,15.088-9.961,25.049-9.961c7.031,0,13.378,1.515,19.043,4.541c5.663,3.028,10.058,7.375,13.184,13.037
	c3.124,5.665,4.688,12.305,4.688,19.922S282.476,306.552,279.352,312.412z"/>
<g>
</g>
<g>
</g>
<g>
</g>
<g>
</g>
<g>
</g>
<g>
</g>
<g>
</g>
<g>
</g>
<g>
</g>
<g>
</g>
<g>
</g>
<g>
</g>
<g>
</g>
<g>
</g>
<g>
</g>
</svg>
